<svg width="24" height="24" viewBox="0 0 24 24" fill="none" xmlns="http://www.w3.org/2000/svg">
<path d="M18 12C18 14.7614 15.5669 16.7943 12.2532 16.7943C10.4524 16.7943 9.5 16.5 9.5 16.5L7 17.5L8.16191 15.8434C8.16191 15.8434 7.60997 15.4225 7.37178 15.1822C6.51484 14.3176 6 13.2089 6 12C6 9.23858 8.68629 7 12 7C15.3137 7 18 9.23858 18 12Z" fill="#D9D9D9"/>
<rect x="9" y="9.5" width="6" height="1" rx="0.5" fill="#7A7A7A"/>
<rect x="9" y="11.5" width="6" height="1" rx="0.5" fill="#7A7A7A"/>
<rect x="9" y="13.5" width="6" height="1" rx="0.5" fill="#7A7A7A"/>
<path opacity="0.4" d="M16.19 2H7.82001C4.18001 2 2.01001 4.17 2.01001 7.81V16.18C2.01001 19.82 4.18001 21.99 7.82001 21.99H16.19C19.83 21.99 22 19.82 22 16.18V7.81C22 4.17 19.83 2 16.19 2Z" fill="white"/>
</svg>
